<svg xmlns="http://www.w3.org/2000/svg" version="1.1" viewBox="447.0 350.0 301.0 167.0" width="301.0" height="167.0">
	<g fill="none" stroke-linecap="butt">
		<path stroke="#FFFFFF" d="M 591.00 350.00 L 604.00 350.00 L 604.00 416.50 C 604.00 460.17 604.34 483.00 605.00 483.00 C 605.55 483.00 609.15 477.38 613.00 470.50 C 616.85 463.62 630.12 440.45 642.50 419.00 C 654.88 397.55 666.35 377.52 668.00 374.50 C 669.65 371.48 671.23 368.77 671.50 368.50 C 671.77 368.23 674.48 369.12 677.50 370.50 C 681.99 372.54 682.91 373.37 682.50 375.00 C 682.23 376.10 675.70 388.02 668.00 401.50 C 660.30 414.98 651.75 429.82 649.00 434.50 C 646.25 439.18 640.85 448.40 637.00 455.00 C 633.15 461.60 627.08 472.18 623.50 478.50 C 619.92 484.82 617.23 490.23 617.50 490.50 C 617.77 490.77 623.62 487.62 630.50 483.50 C 637.38 479.38 656.27 468.35 672.50 459.00 C 688.73 449.65 708.98 437.95 717.50 433.00 C 726.02 428.05 733.23 424.00 733.50 424.00 C 733.77 424.00 735.12 426.25 736.50 429.00 C 737.88 431.75 739.00 434.45 739.00 435.00 C 739.00 435.55 726.62 443.20 711.50 452.00 C 696.38 460.80 675.45 472.73 665.00 478.50 C 654.55 484.27 646.23 489.23 646.50 489.50 C 646.77 489.77 650.83 488.43 655.50 486.50 C 660.17 484.57 669.17 481.20 675.50 479.00 C 681.83 476.80 691.73 473.88 697.50 472.50 C 705.67 470.56 711.67 469.89 724.50 469.50 C 733.58 469.23 742.58 469.23 748.00 470.00 L 748.00 517.00 L 448.00 516.00 L 447.00 470.00 L 450.00 469.50 C 451.65 469.23 458.85 469.00 466.00 469.00 C 473.15 469.00 482.82 469.68 487.50 470.50 C 492.18 471.32 500.27 473.12 505.50 474.50 C 510.73 475.88 518.38 478.12 522.50 479.50 C 526.62 480.88 534.50 484.02 540.00 486.50 C 545.50 488.98 550.45 491.00 551.00 491.00 C 551.55 491.00 550.42 490.10 548.50 489.00 C 546.58 487.90 527.00 476.65 505.00 464.00 C 483.00 451.35 462.98 439.88 460.50 438.50 C 458.02 437.12 456.00 435.55 456.00 435.00 C 456.00 434.45 457.12 431.98 458.50 429.50 C 459.88 427.02 461.23 424.77 461.50 424.50 C 461.77 424.23 464.02 425.12 466.50 426.50 C 468.98 427.88 492.38 441.38 518.50 456.50 C 544.62 471.62 569.83 486.25 574.50 489.00 C 579.17 491.75 583.23 493.77 583.50 493.50 C 583.77 493.23 580.17 486.48 575.50 478.50 C 570.83 470.52 562.73 456.57 557.50 447.50 C 552.27 438.43 539.90 417.05 530.00 400.00 C 520.10 382.95 512.00 368.55 512.00 368.00 C 512.00 367.45 514.25 365.65 517.00 364.00 C 520.33 362.00 522.33 361.33 523.00 362.00 C 523.55 362.55 528.95 371.55 535.00 382.00 C 541.05 392.45 555.23 416.98 566.50 436.50 C 577.77 456.02 587.90 473.35 591.00 478.00 L 591.00 350.00" vector-effect="non-scaling-stroke"/>
	</g>
	<path fill="#FFFFFF" d="M 591.00 350.00 L 604.00 350.00 L 604.00 416.50 C 604.00 460.17 604.34 483.00 605.00 483.00 C 605.55 483.00 609.15 477.38 613.00 470.50 C 616.85 463.62 630.12 440.45 642.50 419.00 C 654.88 397.55 666.35 377.52 668.00 374.50 C 669.65 371.48 671.23 368.77 671.50 368.50 C 671.77 368.23 674.48 369.12 677.50 370.50 C 681.99 372.54 682.91 373.37 682.50 375.00 C 682.23 376.10 675.70 388.02 668.00 401.50 C 660.30 414.98 651.75 429.82 649.00 434.50 C 646.25 439.18 640.85 448.40 637.00 455.00 C 633.15 461.60 627.08 472.18 623.50 478.50 C 619.92 484.82 617.23 490.23 617.50 490.50 C 617.77 490.77 623.62 487.62 630.50 483.50 C 637.38 479.38 656.27 468.35 672.50 459.00 C 688.73 449.65 708.98 437.95 717.50 433.00 C 726.02 428.05 733.23 424.00 733.50 424.00 C 733.77 424.00 735.12 426.25 736.50 429.00 C 737.88 431.75 739.00 434.45 739.00 435.00 C 739.00 435.55 726.62 443.20 711.50 452.00 C 696.38 460.80 675.45 472.73 665.00 478.50 C 654.55 484.27 646.23 489.23 646.50 489.50 C 646.77 489.77 650.83 488.43 655.50 486.50 C 660.17 484.57 669.17 481.20 675.50 479.00 C 681.83 476.80 691.73 473.88 697.50 472.50 C 705.67 470.56 711.67 469.89 724.50 469.50 C 733.58 469.23 742.58 469.23 748.00 470.00 L 748.00 517.00 L 448.00 516.00 L 447.00 470.00 L 450.00 469.50 C 451.65 469.23 458.85 469.00 466.00 469.00 C 473.15 469.00 482.82 469.68 487.50 470.50 C 492.18 471.32 500.27 473.12 505.50 474.50 C 510.73 475.88 518.38 478.12 522.50 479.50 C 526.62 480.88 534.50 484.02 540.00 486.50 C 545.50 488.98 550.45 491.00 551.00 491.00 C 551.55 491.00 550.42 490.10 548.50 489.00 C 546.58 487.90 527.00 476.65 505.00 464.00 C 483.00 451.35 462.98 439.88 460.50 438.50 C 458.02 437.12 456.00 435.55 456.00 435.00 C 456.00 434.45 457.12 431.98 458.50 429.50 C 459.88 427.02 461.23 424.77 461.50 424.50 C 461.77 424.23 464.02 425.12 466.50 426.50 C 468.98 427.88 492.38 441.38 518.50 456.50 C 544.62 471.62 569.83 486.25 574.50 489.00 C 579.17 491.75 583.23 493.77 583.50 493.50 C 583.77 493.23 580.17 486.48 575.50 478.50 C 570.83 470.52 562.73 456.57 557.50 447.50 C 552.27 438.43 539.90 417.05 530.00 400.00 C 520.10 382.95 512.00 368.55 512.00 368.00 C 512.00 367.45 514.25 365.65 517.00 364.00 C 520.33 362.00 522.33 361.33 523.00 362.00 C 523.55 362.55 528.95 371.55 535.00 382.00 C 541.05 392.45 555.23 416.98 566.50 436.50 C 577.77 456.02 587.90 473.35 591.00 478.00 L 591.00 350.00 Z" fill-rule="evenodd"/>
</svg>