<svg xmlns="http://www.w3.org/2000/svg" xmlns:xlink="http://www.w3.org/1999/xlink" zoomAndPan="magnify" preserveAspectRatio="xMidYMid meet" version="1.0" viewBox="64.23 318.55 699.95 122.87"><defs><g/><clipPath id="08edc662c1"><rect x="0" width="457" y="0" height="159"/></clipPath></defs><path stroke-linecap="butt" transform="matrix(0.750295, 0, 0, 0.74968, -261.74058, 63.637392)" fill="none" stroke-linejoin="miter" d="M 575.297619 340.70197 L 587.954099 340.70197 L 587.954099 405.437964 C 587.954099 447.94571 588.287302 470.168747 588.927675 470.168747 C 589.463922 470.168747 592.967752 464.697659 596.716278 458.00209 C 600.464804 451.30131 613.381598 428.750008 625.434149 407.871295 C 637.481494 386.987372 648.648977 367.489457 650.252513 364.550702 C 651.861255 361.611946 653.397109 358.975403 653.66263 358.709664 C 653.922944 358.449136 656.562531 359.314089 659.504082 360.658414 C 663.872156 362.643637 664.767637 363.451274 664.366753 365.040494 C 664.106438 366.108659 657.749564 377.712576 650.252513 390.832765 C 642.760668 403.958165 634.435817 418.401836 631.759786 422.955866 C 629.083755 427.515105 623.825407 436.487689 620.076881 442.912309 C 616.328356 449.336929 610.419222 459.638206 606.936217 465.786666 C 603.453212 471.940337 600.83445 477.208213 601.094764 477.468741 C 601.360285 477.73448 607.055961 474.66546 613.751244 470.653329 C 620.446528 466.646409 638.835128 455.907445 654.636205 446.804597 C 670.432075 437.70696 690.148279 426.316677 698.441892 421.496909 C 706.735505 416.677141 713.753578 412.737958 714.013892 412.737958 C 714.279412 412.737958 715.591396 414.926393 716.934618 417.604621 C 718.27784 420.282848 719.365953 422.908971 719.365953 423.445658 C 719.365953 423.977135 707.318609 431.428236 692.600439 439.994396 C 677.88227 448.560556 657.504868 460.169683 647.331786 465.786666 C 637.163911 471.40365 629.06293 476.233839 629.323245 476.494367 C 629.588765 476.760105 633.540336 475.452255 638.085423 473.576453 C 642.63051 471.695441 651.392689 468.417999 657.556931 466.276459 C 663.715967 464.134919 673.352802 461.289953 678.970384 459.945629 C 686.925588 458.059406 692.761834 457.408086 705.251713 457.027716 C 714.091986 456.767188 722.854165 456.767188 728.128132 457.512298 L 728.128132 503.266222 L 436.097162 502.291848 L 435.123587 457.512298 L 438.044313 457.027716 C 439.653055 456.767188 446.660715 456.543133 453.621519 456.543133 C 460.582323 456.543133 469.995287 457.204875 474.550787 458.00209 C 479.106287 458.799306 486.978191 460.550054 492.069938 461.894378 C 497.161685 463.238703 504.606674 465.416717 508.62072 466.761041 C 512.62956 468.105365 520.298418 471.163964 525.655686 473.576453 C 531.007748 475.988942 535.828768 477.958534 536.365016 477.958534 C 536.896057 477.958534 535.797531 477.077949 533.928474 476.009785 C 532.059418 474.936409 512.999206 463.989023 491.585754 451.67126 C 470.167095 439.358708 450.679968 428.192478 448.264251 426.853364 C 445.853741 425.50904 443.885765 423.977135 443.885765 423.445658 C 443.885765 422.908971 444.979085 420.506902 446.322307 418.089203 C 447.665528 415.676714 448.977512 413.488279 449.237827 413.22254 C 449.503347 412.962012 451.695194 413.826965 454.105704 415.171289 C 456.52142 416.515614 479.29892 429.656645 504.726418 444.371266 C 530.153917 459.091097 554.691141 473.331557 559.236228 476.009785 C 563.786522 478.688012 567.738093 480.652393 567.998407 480.391865 C 568.263927 480.126127 564.760097 473.555611 560.209804 465.786666 C 555.664716 458.022932 547.7824 444.439003 542.690653 435.612315 C 537.598905 426.785627 525.556767 405.969441 515.919932 389.373808 C 506.283098 372.778176 498.400781 358.76177 498.400781 358.225082 C 498.400781 357.688395 500.587421 355.937647 503.263452 354.332794 C 506.506968 352.384045 508.454119 351.732725 509.104904 352.384045 C 509.641152 352.920732 514.8995 361.679683 520.787809 371.850696 C 526.676118 382.026919 540.477981 405.901704 551.452831 424.904615 C 562.422475 443.907526 572.28318 460.774108 575.297619 465.302084 L 575.297619 340.70197 " stroke="#FFFFFF" stroke-width="1" stroke-opacity="1" stroke-miterlimit="4"/><path fill="#FFFFFF" d="M 169.902344 319.054688 L 179.398438 319.054688 L 179.398438 367.585938 C 179.398438 399.453125 179.648438 416.113281 180.128906 416.113281 C 180.53125 416.113281 183.160156 412.011719 185.972656 406.992188 C 188.785156 401.96875 198.476562 385.0625 207.519531 369.410156 C 216.558594 353.753906 224.9375 339.136719 226.140625 336.933594 C 227.347656 334.730469 228.5 332.753906 228.699219 332.554688 C 228.894531 332.359375 230.875 333.007812 233.082031 334.015625 C 236.359375 335.503906 237.03125 336.109375 236.730469 337.300781 C 236.535156 338.101562 231.765625 346.800781 226.140625 356.636719 C 220.519531 366.476562 214.273438 377.304688 212.265625 380.71875 C 210.257812 384.136719 206.3125 390.863281 203.5 395.679688 C 200.6875 400.496094 196.253906 408.21875 193.640625 412.828125 C 191.027344 417.441406 189.0625 421.390625 189.257812 421.585938 C 189.457031 421.785156 193.730469 419.484375 198.753906 416.476562 C 203.777344 413.472656 217.574219 405.421875 229.429688 398.597656 C 241.28125 391.777344 256.074219 383.238281 262.296875 379.625 C 268.519531 376.011719 273.785156 373.058594 273.980469 373.058594 C 274.179688 373.058594 275.164062 374.699219 276.171875 376.707031 C 277.179688 378.714844 277.996094 380.683594 277.996094 381.085938 C 277.996094 381.484375 268.957031 387.070312 257.914062 393.492188 C 246.871094 399.914062 231.582031 408.617188 223.949219 412.828125 C 216.320312 417.039062 210.242188 420.660156 210.4375 420.855469 C 210.636719 421.054688 213.601562 420.074219 217.011719 418.667969 C 220.421875 417.257812 226.996094 414.800781 231.621094 413.195312 C 236.242188 411.589844 243.472656 409.457031 247.6875 408.449219 C 253.65625 407.035156 258.035156 406.546875 267.40625 406.261719 C 274.039062 406.066406 280.613281 406.066406 284.570312 406.625 L 284.570312 440.925781 L 65.460938 440.195312 L 64.730469 406.625 L 66.921875 406.261719 C 68.128906 406.066406 73.386719 405.898438 78.609375 405.898438 C 83.832031 405.898438 90.894531 406.394531 94.3125 406.992188 C 97.730469 407.589844 103.636719 408.902344 107.457031 409.910156 C 111.277344 410.917969 116.863281 412.550781 119.875 413.558594 C 122.882812 414.566406 128.636719 416.859375 132.65625 418.667969 C 136.671875 420.476562 140.289062 421.953125 140.691406 421.953125 C 141.089844 421.953125 140.265625 421.292969 138.863281 420.492188 C 137.460938 419.6875 123.160156 411.480469 107.09375 402.246094 C 91.023438 393.015625 76.402344 384.644531 74.589844 383.640625 C 72.78125 382.632812 71.304688 381.484375 71.304688 381.085938 C 71.304688 380.683594 72.125 378.882812 73.132812 377.070312 C 74.140625 375.261719 75.125 373.621094 75.320312 373.421875 C 75.519531 373.226562 77.164062 373.875 78.972656 374.882812 C 80.785156 375.890625 97.875 385.742188 116.953125 396.773438 C 136.03125 407.808594 154.441406 418.484375 157.851562 420.492188 C 161.265625 422.5 164.230469 423.972656 164.425781 423.777344 C 164.625 423.578125 161.996094 418.652344 158.582031 412.828125 C 155.171875 407.007812 149.257812 396.824219 145.4375 390.207031 C 141.617188 383.585938 132.582031 367.984375 125.351562 355.542969 C 118.121094 343.101562 112.207031 332.59375 112.207031 332.191406 C 112.207031 331.789062 113.847656 330.476562 115.855469 329.273438 C 118.289062 327.8125 119.75 327.324219 120.238281 327.8125 C 120.640625 328.214844 124.585938 334.78125 129.003906 342.40625 C 133.421875 350.035156 143.777344 367.933594 152.011719 382.179688 C 160.242188 396.425781 167.640625 409.070312 169.902344 412.464844 Z M 169.902344 319.054688 " fill-opacity="1" fill-rule="evenodd"/><g transform="matrix(1, 0, 0, 1, 313, 307)"><g clip-path="url(#08edc662c1)"><g fill="#FFFFFF" fill-opacity="1"><g transform="translate(1.262098, 119.383601)"><g><path d="M 37.109375 1.453125 C 30.910156 1.453125 25.429688 0.382812 20.671875 -1.75 C 15.921875 -3.882812 12.171875 -6.945312 9.421875 -10.9375 C 6.679688 -14.925781 5.273438 -19.785156 5.203125 -25.515625 L 21.515625 -25.515625 C 21.679688 -21.554688 23.113281 -18.226562 25.8125 -15.53125 C 28.507812 -12.832031 32.238281 -11.484375 37 -11.484375 C 41.101562 -11.484375 44.363281 -12.46875 46.78125 -14.4375 C 49.195312 -16.414062 50.40625 -19.054688 50.40625 -22.359375 C 50.40625 -25.828125 49.335938 -28.523438 47.203125 -30.453125 C 45.066406 -32.390625 42.222656 -33.960938 38.671875 -35.171875 C 35.128906 -36.390625 31.347656 -37.679688 27.328125 -39.046875 C 20.796875 -41.304688 15.816406 -44.207031 12.390625 -47.75 C 8.960938 -51.300781 7.25 -56.015625 7.25 -61.890625 C 7.164062 -66.890625 8.351562 -71.179688 10.8125 -74.765625 C 13.269531 -78.359375 16.632812 -81.140625 20.90625 -83.109375 C 25.1875 -85.085938 30.101562 -86.078125 35.65625 -86.078125 C 41.300781 -86.078125 46.28125 -85.066406 50.59375 -83.046875 C 54.90625 -81.035156 58.289062 -78.21875 60.75 -74.59375 C 63.207031 -70.96875 64.515625 -66.65625 64.671875 -61.65625 L 48.109375 -61.65625 C 48.035156 -64.632812 46.890625 -67.269531 44.671875 -69.5625 C 42.453125 -71.863281 39.367188 -73.015625 35.421875 -73.015625 C 32.035156 -73.097656 29.191406 -72.269531 26.890625 -70.53125 C 24.597656 -68.800781 23.453125 -66.285156 23.453125 -62.984375 C 23.453125 -60.160156 24.335938 -57.921875 26.109375 -56.265625 C 27.878906 -54.617188 30.296875 -53.226562 33.359375 -52.09375 C 36.421875 -50.96875 39.929688 -49.765625 43.890625 -48.484375 C 48.078125 -47.023438 51.898438 -45.328125 55.359375 -43.390625 C 58.828125 -41.460938 61.609375 -38.90625 63.703125 -35.71875 C 65.804688 -32.539062 66.859375 -28.453125 66.859375 -23.453125 C 66.859375 -19.015625 65.726562 -14.898438 63.46875 -11.109375 C 61.207031 -7.328125 57.859375 -4.285156 53.421875 -1.984375 C 48.992188 0.304688 43.554688 1.453125 37.109375 1.453125 Z M 37.109375 1.453125 "/></g></g></g><g fill="#FFFFFF" fill-opacity="1"><g transform="translate(73.428197, 119.383601)"><g><path d="M 30.34375 1.453125 C 22.84375 1.453125 17.054688 -0.882812 12.984375 -5.5625 C 8.921875 -10.238281 6.890625 -17.085938 6.890625 -26.109375 L 6.890625 -59.96875 L 22.25 -59.96875 L 22.25 -27.5625 C 22.25 -22.40625 23.296875 -18.457031 25.390625 -15.71875 C 27.484375 -12.976562 30.785156 -11.609375 35.296875 -11.609375 C 39.566406 -11.609375 43.09375 -13.140625 45.875 -16.203125 C 48.65625 -19.265625 50.046875 -23.535156 50.046875 -29.015625 L 50.046875 -59.96875 L 65.515625 -59.96875 L 65.515625 0 L 51.859375 0 L 50.65625 -10.15625 C 48.800781 -6.601562 46.117188 -3.78125 42.609375 -1.6875 C 39.109375 0.40625 35.019531 1.453125 30.34375 1.453125 Z M 30.34375 1.453125 "/></g></g></g><g fill="#FFFFFF" fill-opacity="1"><g transform="translate(146.924002, 119.383601)"><g><path d="M 7.859375 0 L 7.859375 -59.96875 L 21.515625 -59.96875 L 22.84375 -51.859375 C 24.78125 -54.765625 27.335938 -57.082031 30.515625 -58.8125 C 33.703125 -60.539062 37.394531 -61.40625 41.59375 -61.40625 C 50.851562 -61.40625 57.421875 -57.820312 61.296875 -50.65625 C 63.472656 -53.957031 66.394531 -56.570312 70.0625 -58.5 C 73.726562 -60.4375 77.734375 -61.40625 82.078125 -61.40625 C 89.898438 -61.40625 95.90625 -59.066406 100.09375 -54.390625 C 104.289062 -49.722656 106.390625 -42.875 106.390625 -33.84375 L 106.390625 0 L 90.90625 0 L 90.90625 -32.40625 C 90.90625 -37.5625 89.914062 -41.507812 87.9375 -44.25 C 85.96875 -46.988281 82.929688 -48.359375 78.828125 -48.359375 C 74.628906 -48.359375 71.257812 -46.828125 68.71875 -43.765625 C 66.1875 -40.703125 64.921875 -36.429688 64.921875 -30.953125 L 64.921875 0 L 49.4375 0 L 49.4375 -32.40625 C 49.4375 -37.5625 48.429688 -41.507812 46.421875 -44.25 C 44.410156 -46.988281 41.304688 -48.359375 37.109375 -48.359375 C 33.003906 -48.359375 29.679688 -46.828125 27.140625 -43.765625 C 24.597656 -40.703125 23.328125 -36.429688 23.328125 -30.953125 L 23.328125 0 Z M 7.859375 0 "/></g></g></g><g fill="#FFFFFF" fill-opacity="1"><g transform="translate(260.189736, 119.383601)"><g><path d="M 7.859375 0 L 7.859375 -59.96875 L 21.515625 -59.96875 L 22.84375 -51.859375 C 24.78125 -54.765625 27.335938 -57.082031 30.515625 -58.8125 C 33.703125 -60.539062 37.394531 -61.40625 41.59375 -61.40625 C 50.851562 -61.40625 57.421875 -57.820312 61.296875 -50.65625 C 63.472656 -53.957031 66.394531 -56.570312 70.0625 -58.5 C 73.726562 -60.4375 77.734375 -61.40625 82.078125 -61.40625 C 89.898438 -61.40625 95.90625 -59.066406 100.09375 -54.390625 C 104.289062 -49.722656 106.390625 -42.875 106.390625 -33.84375 L 106.390625 0 L 90.90625 0 L 90.90625 -32.40625 C 90.90625 -37.5625 89.914062 -41.507812 87.9375 -44.25 C 85.96875 -46.988281 82.929688 -48.359375 78.828125 -48.359375 C 74.628906 -48.359375 71.257812 -46.828125 68.71875 -43.765625 C 66.1875 -40.703125 64.921875 -36.429688 64.921875 -30.953125 L 64.921875 0 L 49.4375 0 L 49.4375 -32.40625 C 49.4375 -37.5625 48.429688 -41.507812 46.421875 -44.25 C 44.410156 -46.988281 41.304688 -48.359375 37.109375 -48.359375 C 33.003906 -48.359375 29.679688 -46.828125 27.140625 -43.765625 C 24.597656 -40.703125 23.328125 -36.429688 23.328125 -30.953125 L 23.328125 0 Z M 7.859375 0 "/></g></g></g><g fill="#FFFFFF" fill-opacity="1"><g transform="translate(373.455469, 119.383601)"><g><path d="M 16.203125 -69.265625 C 13.378906 -69.265625 11.0625 -70.109375 9.25 -71.796875 C 7.4375 -73.492188 6.53125 -75.632812 6.53125 -78.21875 C 6.53125 -80.789062 7.4375 -82.90625 9.25 -84.5625 C 11.0625 -86.21875 13.378906 -87.046875 16.203125 -87.046875 C 19.023438 -87.046875 21.34375 -86.21875 23.15625 -84.5625 C 24.96875 -82.90625 25.875 -80.789062 25.875 -78.21875 C 25.875 -75.632812 24.96875 -73.492188 23.15625 -71.796875 C 21.34375 -70.109375 19.023438 -69.265625 16.203125 -69.265625 Z M 8.46875 0 L 8.46875 -59.96875 L 23.9375 -59.96875 L 23.9375 0 Z M 8.46875 0 "/></g></g></g><g fill="#FFFFFF" fill-opacity="1"><g transform="translate(405.730776, 119.383601)"><g><path d="M 34.578125 0 C 28.285156 0 23.242188 -1.53125 19.453125 -4.59375 C 15.671875 -7.65625 13.78125 -13.097656 13.78125 -20.921875 L 13.78125 -47.03125 L 3.5 -47.03125 L 3.5 -59.96875 L 13.78125 -59.96875 L 15.59375 -76.046875 L 29.25 -76.046875 L 29.25 -59.96875 L 45.453125 -59.96875 L 45.453125 -47.03125 L 29.25 -47.03125 L 29.25 -20.796875 C 29.25 -17.890625 29.875 -15.890625 31.125 -14.796875 C 32.375 -13.710938 34.53125 -13.171875 37.59375 -13.171875 L 45.09375 -13.171875 L 45.09375 0 Z M 34.578125 0 "/></g></g></g></g></g></svg>